<svg width="23" height="23" viewBox="0 0 23 23" fill="none" xmlns="http://www.w3.org/2000/svg">
<circle cx="11.9832" cy="11.062" r="11" fill="white"/>
<path d="M11.9832 1.56201C6.74322 1.56201 2.48322 5.82201 2.48322 11.062C2.48322 16.302 6.74322 20.562 11.9832 20.562C17.2232 20.562 21.4832 16.302 21.4832 11.062C21.4832 5.82201 17.2232 1.56201 11.9832 1.56201ZM15.6932 12.772C15.4932 12.962 15.2432 13.062 14.9832 13.062C14.7232 13.062 14.4732 12.962 14.2732 12.772L11.9832 10.4719L9.69324 12.772C9.30324 13.162 8.66319 13.162 8.27319 12.772C7.88319 12.382 7.88319 11.7421 8.27319 11.3521L11.2732 8.35205C11.6632 7.96205 12.3032 7.96205 12.6932 8.35205L15.6932 11.3521C16.0832 11.7421 16.0832 12.382 15.6932 12.772Z" fill="#1FDF5E"/>
</svg>
