<svg width="32" height="33" viewBox="0 0 32 33" fill="none" xmlns="http://www.w3.org/2000/svg">
<path d="M3.33331 5.91666C3.33331 5.65145 3.43867 5.39709 3.62621 5.20956C3.81374 5.02202 4.0681 4.91666 4.33331 4.91666H5.07731C6.34398 4.91666 7.10398 5.76866 7.53731 6.56066C7.82665 7.08866 8.03598 7.70066 8.19998 8.25533C8.24434 8.25183 8.28882 8.25005 8.33331 8.25H24.9973C26.104 8.25 26.904 9.30866 26.6 10.374L24.1626 18.9193C23.9441 19.6858 23.4818 20.3602 22.8457 20.8404C22.2096 21.3206 21.4343 21.5805 20.6373 21.5807H12.7066C11.9033 21.5807 11.1222 21.3169 10.4833 20.8298C9.84451 20.3427 9.38331 19.6593 9.17065 18.8847L8.15731 15.1887L6.47731 9.52466L6.47598 9.514C6.26798 8.758 6.07331 8.05 5.78265 7.522C5.50398 7.00866 5.27998 6.91666 5.07865 6.91666H4.33331C4.0681 6.91666 3.81374 6.81131 3.62621 6.62377C3.43867 6.43623 3.33331 6.18188 3.33331 5.91666ZM10.0973 14.7033L11.0986 18.3553C11.2986 19.078 11.956 19.5807 12.7066 19.5807H20.6373C20.9996 19.5807 21.352 19.4626 21.6412 19.2444C21.9304 19.0262 22.1406 18.7197 22.24 18.3713L24.556 10.25H8.77998L10.0786 14.6327L10.0973 14.7033ZM14.6666 25.5833C14.6666 26.2906 14.3857 26.9689 13.8856 27.4689C13.3855 27.969 12.7072 28.25 12 28.25C11.2927 28.25 10.6145 27.969 10.1144 27.4689C9.61426 26.9689 9.33331 26.2906 9.33331 25.5833C9.33331 24.8761 9.61426 24.1978 10.1144 23.6977C10.6145 23.1976 11.2927 22.9167 12 22.9167C12.7072 22.9167 13.3855 23.1976 13.8856 23.6977C14.3857 24.1978 14.6666 24.8761 14.6666 25.5833V25.5833ZM12.6666 25.5833C12.6666 25.4065 12.5964 25.237 12.4714 25.1119C12.3464 24.9869 12.1768 24.9167 12 24.9167C11.8232 24.9167 11.6536 24.9869 11.5286 25.1119C11.4036 25.237 11.3333 25.4065 11.3333 25.5833C11.3333 25.7601 11.4036 25.9297 11.5286 26.0547C11.6536 26.1798 11.8232 26.25 12 26.25C12.1768 26.25 12.3464 26.1798 12.4714 26.0547C12.5964 25.9297 12.6666 25.7601 12.6666 25.5833ZM24 25.5833C24 26.2906 23.719 26.9689 23.2189 27.4689C22.7188 27.969 22.0406 28.25 21.3333 28.25C20.6261 28.25 19.9478 27.969 19.4477 27.4689C18.9476 26.9689 18.6666 26.2906 18.6666 25.5833C18.6666 24.8761 18.9476 24.1978 19.4477 23.6977C19.9478 23.1976 20.6261 22.9167 21.3333 22.9167C22.0406 22.9167 22.7188 23.1976 23.2189 23.6977C23.719 24.1978 24 24.8761 24 25.5833V25.5833ZM22 25.5833C22 25.4065 21.9297 25.237 21.8047 25.1119C21.6797 24.9869 21.5101 24.9167 21.3333 24.9167C21.1565 24.9167 20.9869 24.9869 20.8619 25.1119C20.7369 25.237 20.6666 25.4065 20.6666 25.5833C20.6666 25.7601 20.7369 25.9297 20.8619 26.0547C20.9869 26.1798 21.1565 26.25 21.3333 26.25C21.5101 26.25 21.6797 26.1798 21.8047 26.0547C21.9297 25.9297 22 25.7601 22 25.5833Z" fill="black"/>
</svg>
