<svg width="28" height="28" viewBox="0 0 28 28" fill="none" xmlns="http://www.w3.org/2000/svg">
<g clip-path="url(#clip0_3859_26)">
<path fill-rule="evenodd" clip-rule="evenodd" d="M27.4874 27.4874C27.8156 27.1592 28 26.7141 28 26.25V1.75C28 0.784 27.216 0 26.25 0H1.75C0.784 0 0 0.784 0 1.75V26.25C0 26.7141 0.184374 27.1592 0.512563 27.4874C0.840752 27.8156 1.28587 28 1.75 28H14.875V17.5H11.375V13.125H14.875V10.5C14.875 6.895 16.909 4.375 20.125 4.375H23.625V8.75H21.875C20.127 8.75 19.25 9.625 19.25 11.375V13.125H23.625L22.75 17.5H19.25V28H26.25C26.7141 28 27.1592 27.8156 27.4874 27.4874Z" fill="#1C1F2A"/>
</g>
<defs>
<clipPath id="clip0_3859_26">
<rect width="28" height="28" fill="white"/>
</clipPath>
</defs>
</svg>
