<svg width="28" height="28" viewBox="0 0 28 28" fill="none" xmlns="http://www.w3.org/2000/svg">
<g clip-path="url(#clip0_3859_39)">
<path fill-rule="evenodd" clip-rule="evenodd" d="M25 28H3C1.34315 28 0 26.6569 0 25V3C0 1.34315 1.34315 0 3 0H25C26.6569 0 28 1.34315 28 3V25C28 26.6569 26.6569 28 25 28ZM8.75 24.5H19.25C22.15 24.5 24.5 22.15 24.5 19.25V8.75C24.5 5.85 22.15 3.5 19.25 3.5H8.75C5.85 3.5 3.5 5.85 3.5 8.75V19.25C3.5 20.6424 4.05312 21.9777 5.03769 22.9623C6.02225 23.9469 7.35761 24.5 8.75 24.5ZM6.52378 6.52378C7.11429 5.93327 7.91489 5.60106 8.75 5.6H19.25C20.0851 5.60106 20.8857 5.93327 21.4762 6.52378C22.0667 7.11429 22.3989 7.91489 22.4 8.75V19.25C22.3989 20.0851 22.0667 20.8857 21.4762 21.4762C20.8857 22.0667 20.0851 22.3989 19.25 22.4H8.75C7.91489 22.3989 7.11429 22.0667 6.52378 21.4762C5.93327 20.8857 5.60106 20.0851 5.6 19.25V8.75C5.60106 7.91489 5.93327 7.11429 6.52378 6.52378ZM13.9998 19.9508C12.4218 19.9508 10.9084 19.3239 9.79252 18.2081C8.67668 17.0922 8.0498 15.5788 8.0498 14.0008C8.0498 12.4227 8.67668 10.9093 9.79252 9.7935C10.9084 8.67765 12.4218 8.05078 13.9998 8.05078C15.5778 8.05078 17.0912 8.67765 18.2071 9.7935C19.3229 10.9093 19.9498 12.4227 19.9498 14.0008C19.9498 15.5788 19.3229 17.0922 18.2071 18.2081C17.0912 19.3239 15.5778 19.9508 13.9998 19.9508ZM13.9998 10.1508C12.9787 10.1508 11.9995 10.5564 11.2774 11.2784C10.5554 12.0004 10.1498 12.9797 10.1498 14.0008C10.1498 15.0219 10.5554 16.0011 11.2774 16.7231C11.9995 17.4452 12.9787 17.8508 13.9998 17.8508C15.0209 17.8508 16.0002 17.4452 16.7222 16.7231C17.4442 16.0011 17.8498 15.0219 17.8498 14.0008C17.8498 12.9797 17.4442 12.0004 16.7222 11.2784C16.0002 10.5564 15.0209 10.1508 13.9998 10.1508ZM21.0004 8.39961C21.0004 8.97951 20.5303 9.44961 19.9504 9.44961C19.3705 9.44961 18.9004 8.97951 18.9004 8.39961C18.9004 7.81971 19.3705 7.34961 19.9504 7.34961C20.5303 7.34961 21.0004 7.81971 21.0004 8.39961Z" fill="#1C1F2A"/>
</g>
<defs>
<clipPath id="clip0_3859_39">
<rect width="28" height="28" fill="white"/>
</clipPath>
</defs>
</svg>
