<svg width="28" height="28" viewBox="0 0 28 28" fill="none" xmlns="http://www.w3.org/2000/svg">
<g clip-path="url(#clip0_3863_17)">
<path fill-rule="evenodd" clip-rule="evenodd" d="M25 0H3C1.34277 0 0 1.34375 0 3V25C0 26.6562 1.34277 28 3 28H25C26.6572 28 28 26.6562 28 25V3C28 1.34375 26.6572 0 25 0ZM14 3.83008C12.251 3.83008 10.5332 4.29102 9.01953 5.16602C8.44434 5.49805 7.90625 5.88672 7.41211 6.32227C6.60645 7.03516 5.91699 7.875 5.375 8.81445C4.50195 10.3301 4.04297 12.0488 4.04492 13.7969C4.04688 15.5449 4.50879 17.2617 5.38477 18.7754L4.03125 23.9551L9.29688 22.5625C10.0342 22.957 10.8164 23.2559 11.624 23.4551C12.2773 23.6152 12.9473 23.709 13.623 23.7344C15.1357 23.791 16.6416 23.502 18.0254 22.8887C19.4092 22.2773 20.6357 21.3574 21.6113 20.1992C21.9648 19.7793 22.2822 19.332 22.5605 18.8613C23.0498 18.0371 23.418 17.1445 23.6533 16.209C24.0215 14.7422 24.0508 13.209 23.7373 11.7285C23.5879 11.0176 23.3613 10.3281 23.0635 9.67188C22.7402 8.95898 22.332 8.28516 21.8477 7.66406C20.917 6.46875 19.7266 5.50391 18.3672 4.83984C17.0068 4.17578 15.5137 3.83008 14 3.83008ZM19.8555 19.6406C18.5186 20.9766 16.7646 21.8145 14.8857 22.0176C13.0068 22.2207 11.1152 21.7734 9.52441 20.7539L6.46387 21.5664L7.24609 18.5762C6.33301 17.2891 5.80664 15.7676 5.72949 14.1914C5.65234 12.6152 6.02734 11.0508 6.80957 9.67969C7.16797 9.05078 7.60547 8.47656 8.1084 7.9668C8.7041 7.36523 9.3916 6.85547 10.1484 6.45703C11.5449 5.72266 13.123 5.40234 14.6963 5.53516C16.2686 5.66797 17.7705 6.24805 19.0244 7.20508C20.2793 8.16406 21.2334 9.46094 21.7754 10.9434C22.3184 12.4238 22.4248 14.0312 22.085 15.5723C21.7441 17.1133 20.9707 18.5254 19.8555 19.6406ZM18.9883 16.4551L18.9893 16.3926L18.9727 16.3047L18.9551 16.252C18.9551 16.252 18.9092 16.1289 18.4141 15.9141L18.0312 15.7305L17.5967 15.5215L17.2012 15.3203L17.0215 15.2109C16.9648 15.1758 16.9072 15.1426 16.8486 15.1152L16.7686 15.0762C16.7061 15.0508 16.6377 15.0391 16.5703 15.0391C16.5703 15.0391 16.4316 15.0469 16.2373 15.2539L16.0664 15.4531C16.002 15.5332 15.9404 15.6172 15.8818 15.7012C15.7783 15.8574 15.6641 16.0059 15.542 16.1484C15.542 16.1484 15.3613 16.3555 15.2373 16.3613C15.1826 16.3613 15.1299 16.3535 15.0801 16.3359L14.9355 16.2852C14.9355 16.2852 14.8857 16.2637 14.7656 16.1973L14.6299 16.127C14.6299 16.127 14.2939 15.9648 13.873 15.7012C13.5771 15.5176 13.2393 15.2832 12.9463 15.0215C12.7529 14.8398 12.5684 14.6484 12.3936 14.4473C12.125 14.1406 11.8799 13.8145 11.6602 13.4707L11.5742 13.3457L11.4678 13.1855L11.4023 13.0488C11.3809 13 11.3662 12.9473 11.3594 12.8945C11.3594 12.8945 11.3535 12.7715 11.5391 12.5684C11.666 12.4297 11.8018 12.3008 11.9453 12.1797C12.0908 12.0547 12.2256 11.9219 12.3506 11.7773C12.3506 11.7773 12.3984 11.7207 12.4443 11.6465C12.4883 11.5762 12.5312 11.4902 12.5273 11.4238C12.5215 11.3555 12.5 11.2891 12.4668 11.2285C12.4189 11.1465 12.3662 11.0684 12.3057 10.9941L12.1758 10.8281L11.9434 10.4727L11.6777 10.0508L11.4512 9.69141C11.4512 9.69141 11.1826 9.22266 11.0566 9.18945L10.9648 9.17383L10.9111 9.17578C10.748 9.19141 10.5869 9.22461 10.4297 9.27148C10.3369 9.29883 10.2451 9.33008 10.1533 9.36523L9.96582 9.44141C9.96582 9.44141 9.8252 9.50977 9.63184 9.75391C9.52734 9.88672 9.40723 10.0703 9.28613 10.3223C9.28613 10.3223 8.9707 10.9883 9.00586 11.6191L9.02441 11.8145L9.0498 11.9824C9.07812 12.1133 9.11426 12.2441 9.1582 12.3711L9.27832 12.6934L9.44141 13.0664L9.58301 13.3965C9.75977 13.8066 9.97363 14.1973 10.2207 14.5684C10.6865 15.2012 11.2168 15.7812 11.8037 16.3047C11.8037 16.3047 12.7949 17.1895 13.7051 17.6836C14.0996 17.8906 14.5137 18.0605 14.9404 18.1875L15.2842 18.293C15.5205 18.375 15.7617 18.4414 16.0059 18.4941C16.3496 18.5781 16.707 18.5879 17.0557 18.5273C17.4033 18.4668 17.7354 18.332 18.0303 18.1367C18.0303 18.1367 18.7041 17.7109 18.8271 17.3613C18.8809 17.2051 18.9209 17.0449 18.9473 16.8809C18.9707 16.7402 18.9854 16.5977 18.9883 16.4551Z" fill="#1C1F2A"/>
</g>
<defs>
<clipPath id="clip0_3863_17">
<rect width="28" height="28" fill="white"/>
</clipPath>
</defs>
</svg>
